<?xml version="1.0" encoding="iso-8859-1"?>
<!-- Generator: Adobe Illustrator 18.0.0, SVG Export Plug-In . SVG Version: 6.00 Build 0)  -->
<!DOCTYPE svg PUBLIC "-//W3C//DTD SVG 1.1//EN" "http://www.w3.org/Graphics/SVG/1.1/DTD/svg11.dtd">
<svg version="1.1" id="Capa_1" xmlns="http://www.w3.org/2000/svg" xmlns:xlink="http://www.w3.org/1999/xlink" x="0px" y="0px"
	 viewBox="0 0 264 264" style="enable-background:new 0 0 264 264;" xml:space="preserve">
<path d="M209.318,132C224.477,118.097,234,98.142,234,76c0-41.906-34.094-76-76-76H50C38.954,0,30,8.954,30,20v112v112
	c0,11.046,8.954,20,20,20h108c41.906,0,76-34.094,76-76C234,165.858,224.477,145.903,209.318,132z M70,40h88
	c19.851,0,36,16.149,36,36s-16.149,36-36,36H70V40z M158,224H70v-72h88c19.851,0,36,16.149,36,36S177.851,224,158,224z"/>
<g>
</g>
</svg>
