<?xml version="1.0" encoding="iso-8859-1"?>
<!-- Generator: Adobe Illustrator 16.0.0, SVG Export Plug-In . SVG Version: 6.00 Build 0)  -->
<!DOCTYPE svg PUBLIC "-//W3C//DTD SVG 1.1//EN" "http://www.w3.org/Graphics/SVG/1.1/DTD/svg11.dtd">
<svg version="1.1" id="Capa_1" xmlns="http://www.w3.org/2000/svg" xmlns:xlink="http://www.w3.org/1999/xlink" x="0px" y="0px"
	 width="588.6px" height="588.6px" viewBox="0 0 588.6 588.6" style="enable-background:new 0 0 588.6 588.6;" xml:space="preserve"
	>
<g>
	<path d="M539.578,49.193h-178.2c-0.791,0-1.562,0.071-2.353,0.119V0L11.222,46.417v494.575L359.025,588.6v-50.825
		c0.791,0.058,1.551,0.116,2.353,0.116h178.2c20.835,0,37.8-16.971,37.8-37.801V86.994
		C577.378,66.155,560.413,49.193,539.578,49.193z M149.478,306.166c0,37.083-16.938,49.554-43.695,48.832
		c-6.265-0.164-14.418-1.503-19.709-3.539l2.995-23.071c3.715,1.371,8.501,2.395,13.856,2.479
		c11.475,0.211,18.702-5.215,18.702-25.265v-80.939l27.852-0.72V306.166z M204.759,357.455c-14.797-0.396-29.247-4.678-36.429-8.933
		l5.843-24.416c7.781,4.202,19.796,8.516,32.334,8.727c13.634,0.232,20.894-5.41,20.894-14.164c0-8.363-6.296-13.168-22.043-19.006
		c-21.502-7.715-35.322-19.801-35.322-38.865c0-22.383,18.204-39.98,48.93-40.798c14.948-0.388,26.072,2.523,34.08,5.935
		l-6.805,24.809c-5.39-2.529-14.903-6.157-27.852-5.946c-12.846,0.216-19.035,6.23-19.035,13.109c0,8.47,7.359,12.161,24.311,18.595
		c23.57,8.704,34.802,21.188,34.802,40.315C258.461,339.562,241.057,358.419,204.759,357.455z M555.777,500.09
		c0,8.934-7.277,16.2-16.199,16.2h-178.2c-0.797,0-1.571-0.11-2.353-0.231v-50.646c4.831,9.297,12.973,16.321,22.766,19.586
		c10.542,3.501,24.079,3.174,34.009-0.802c11.902-4.82,18.879-14.771,20.725-29.563c0.163-1.497,0.274-18.214,0.274-49.676v-47.429
		h-13.11h-13.083l-0.111,47.266l-0.073,47.298l-0.591,2.22c-0.78,2.916-1.688,4.656-3.291,6.26c-2.251,2.246-5.136,3.185-9.95,3.211
		c-6.872,0.026-11.001-2.884-15.784-11.074c-0.78-1.286-1.471-2.336-1.556-2.299c-0.11,0.053-4.946,2.969-10.752,6.471l-9.472,5.753
		V71.036c0.781-0.113,1.54-0.237,2.353-0.237h178.2c8.922,0,16.199,7.27,16.199,16.2V500.09z M539.409,433.366
		c2.489,5.163,3.586,10.384,3.586,17.065c0,10.468-3.291,18.81-9.982,25.26c-6.281,6.096-14.392,9.682-25.202,11.206
		c-4.303,0.59-12.73,0.611-17.223,0c-17.171-2.3-29.88-10.326-38.012-24.026c-1.044-1.708-1.255-2.268-0.991-2.51
		c0.428-0.401,20.788-12.145,21.03-12.145c0.105,0,0.876,1.018,1.74,2.246C480.61,459.717,488.399,464,498.824,464
		c6.187,0,11.159-1.688,14.312-4.873c0.938-0.928,1.973-2.325,2.384-3.153c2.057-4.282,1.149-9.872-2.12-13.373
		c-2.647-2.838-6.798-5.115-17.951-9.898c-8.189-3.528-12.92-5.807-16.4-7.895c-13.658-8.269-19.796-18.699-19.796-33.634
		c0-9.978,3.105-17.841,9.603-24.29c6.317-6.254,14.798-9.893,24.906-10.694c3.829-0.295,4.361-0.295,8.428,0.026
		c8.295,0.617,14.581,2.621,20.466,6.528c3.19,2.115,7.815,6.93,10.384,10.779c1.202,1.819,2.193,3.37,2.193,3.485
		c0,0.18-19.448,12.757-20.145,13.058c-0.211,0.073-0.828-0.644-1.661-1.957c-0.723-1.149-2.272-3.042-3.485-4.224
		c-3.396-3.428-6.74-4.762-11.897-4.762c-4.546-0.032-7.488,1.118-10.03,3.876c-1.761,1.898-2.567,3.85-2.758,6.739
		c-0.211,3.639,0.786,6.555,3.096,9.049c2.437,2.59,6.139,4.625,17.154,9.355c14.581,6.265,21.885,10.595,27.533,16.316
		C535.992,427.459,537.7,429.838,539.409,433.366z"/>
</g>
</svg>
