<svg height="512pt" viewBox="-29 0 511 512" width="512pt" xmlns="http://www.w3.org/2000/svg"><path d="m298.519531 492c-2.640625 0-5.210937 1.070312-7.070312 2.929688-1.871094 1.859374-2.929688 4.441406-2.929688 7.070312s1.058594 5.210938 2.929688 7.070312c1.859375 1.859376 4.429687 2.929688 7.070312 2.929688 2.628907 0 5.210938-1.070312 7.070313-2.929688 1.859375-1.859374 2.929687-4.441406 2.929687-7.070312s-1.070312-5.210938-2.929687-7.070312c-1.859375-1.859376-4.441406-2.929688-7.070313-2.929688zm0 0"/><path d="m101.972656 292.5c-5.523437 0-10 4.476562-10 10 0 5.296875-4.3125 9.605469-9.605468 9.605469-5.296876 0-9.609376-4.308594-9.609376-9.605469 0-5.523438-4.476562-10-10-10-5.523437 0-10 4.476562-10 10 0 16.324219 13.28125 29.605469 29.609376 29.605469 16.324218 0 29.605468-13.28125 29.605468-29.605469 0-5.523438-4.476562-10-10-10zm0 0"/><path d="m64.640625 271.070312c3.90625-3.902343 3.90625-10.234374 0-14.140624-3.480469-3.480469-8.105469-5.394532-13.023437-5.394532-4.917969 0-9.542969 1.914063-13.019532 5.394532-3.90625 3.90625-3.90625 10.234374 0 14.140624 3.550782 3.550782 9.105469 3.871094 13.019532.96875 1.761718 1.308594 3.855468 1.960938 5.953124 1.960938 2.558594 0 5.117188-.976562 7.070313-2.929688zm0 0"/><path d="m113.363281 251.535156c-4.917969 0-9.542969 1.914063-13.019531 5.394532-3.90625 3.90625-3.90625 10.238281 0 14.140624 3.550781 3.550782 9.105469 3.875 13.019531.96875 1.761719 1.308594 3.855469 1.960938 5.953125 1.960938 2.558594 0 5.117188-.976562 7.070313-2.929688 3.902343-3.902343 3.902343-10.234374 0-14.140624-3.476563-3.480469-8.101563-5.394532-13.023438-5.394532zm0 0"/><path d="m401.644531 302.5c0-5.523438-4.480469-10-10-10-5.523437 0-10 4.476562-10 10 0 5.296875-4.3125 9.605469-9.609375 9.605469-5.292968 0-9.605468-4.308594-9.605468-9.605469 0-5.523438-4.476563-10-10-10-5.523438 0-10 4.476562-10 10 0 16.324219 13.28125 29.605469 29.605468 29.605469 16.328125 0 29.609375-13.28125 29.609375-29.605469zm0 0"/><path d="m354.3125 271.070312c3.90625-3.90625 3.90625-10.234374 0-14.140624-3.476562-3.480469-8.101562-5.394532-13.023438-5.394532-4.917968 0-9.542968 1.914063-13.019531 5.394532-3.90625 3.90625-3.90625 10.234374 0 14.140624 3.550781 3.550782 9.105469 3.871094 13.019531.96875 1.761719 1.308594 3.855469 1.960938 5.953126 1.960938 2.558593 0 5.117187-.976562 7.070312-2.929688zm0 0"/><path d="m403.035156 272.039062c1.765625 1.308594 3.859375 1.960938 5.953125 1.960938 2.558594 0 5.117188-.976562 7.070313-2.929688 3.90625-3.90625 3.90625-10.234374 0-14.140624-3.480469-3.480469-8.105469-5.394532-13.023438-5.394532-4.917968 0-9.542968 1.914063-13.019531 5.394532-3.90625 3.90625-3.90625 10.234374 0 14.140624 3.550781 3.550782 9.105469 3.871094 13.019531.96875zm0 0"/><path d="m257.5 256.179688c-2.628906 0-5.210938 1.0625-7.070312 2.929687-1.859376 1.859375-2.929688 4.429687-2.929688 7.070313 0 2.628906 1.070312 5.210937 2.929688 7.070312 1.859374 1.859375 4.441406 2.929688 7.070312 2.929688s5.210938-1.070313 7.070312-2.929688c1.859376-1.871094 2.929688-4.441406 2.929688-7.070312 0-2.628907-1.070312-5.210938-2.929688-7.070313-1.859374-1.871094-4.441406-2.929687-7.070312-2.929687zm0 0"/><path d="m205.75 266.179688c0-2.628907-1.058594-5.210938-2.929688-7.070313-1.859374-1.867187-4.429687-2.929687-7.070312-2.929687-2.628906 0-5.210938 1.0625-7.070312 2.929687-1.859376 1.859375-2.929688 4.441406-2.929688 7.070313 0 2.628906 1.070312 5.210937 2.929688 7.070312 1.859374 1.859375 4.441406 2.929688 7.070312 2.929688 2.640625 0 5.210938-1.070313 7.070312-2.929688 1.871094-1.859375 2.929688-4.441406 2.929688-7.070312zm0 0"/><path d="m241.5 294.804688h-30c-5.523438 0-10 4.476562-10 10 0 13.785156 11.214844 25 25 25s25-11.214844 25-25c0-5.523438-4.476562-10-10-10zm0 0"/><path d="m452.5 367.402344v-109.597656c0-45.207032-36.78125-81.992188-81.992188-81.992188-31.019531 0-58.066406 17.320312-71.992187 42.789062-13.929687-25.46875-40.988281-42.789062-72.039063-42.789062-31.019531 0-58.066406 17.316406-71.992187 42.789062-13.925781-25.472656-40.972656-42.789062-71.992187-42.789062-45.210938 0-81.992188 36.785156-81.992188 81.992188v244.195312c0 5.523438 4.476562 10 10 10s10-4.476562 10-10v-109.492188l21.132812 21.132813v23.414063c0 5.523437 4.476563 10 10 10 5.523438 0 10-4.476563 10-10v-3.414063l7.796876 7.796875c1.953124 1.953125 4.511718 2.929688 7.070312 2.929688s5.121094-.976563 7.070312-2.929688c3.90625-3.90625 3.90625-10.238281 0-14.144531l-7.796874-7.796875h5.0625c5.519531 0 10-4.476563 10-10 0-5.523438-4.480469-10-10-10h-25.0625l-35.273438-35.273438v-106.417968c0-34.183594 27.808594-61.992188 61.992188-61.992188 34.179687 0 61.992187 27.8125 61.992187 61.992188v244.195312c0 5.523438 4.476563 10 10 10s10-4.476562 10-10v-244.195312c0-34.183594 27.808594-61.992188 62.039063-61.992188 34.179687 0 61.992187 27.8125 61.992187 61.992188v204.195312c0 5.523438 4.476563 10 10 10s10-4.476562 10-10v-204.195312c0-34.183594 27.808594-61.992188 61.992187-61.992188 34.179688 0 61.992188 27.8125 61.992188 61.992188v106.464843l-35.226562 35.226563h-25.0625c-5.523438 0-10 4.480468-10 10 0 5.523437 4.476562 10 10 10h5.0625l-7.800782 7.800781c-3.902344 3.902344-3.902344 10.234375 0 14.140625 1.953125 1.953125 4.511719 2.929688 7.074219 2.929688 2.558594 0 5.117187-.976563 7.070313-2.929688l7.796874-7.796875v3.414063c0 5.523437 4.476563 10 10 10 5.523438 0 10-4.476563 10-10v-23.414063l21.082032-21.085937v109.445312c0 5.523438 4.480468 10 10 10 5.523437 0 10-4.476562 10-10v-132.671875c.066406-.640625.066406-1.285156.003906-1.925781zm0 0"/><path d="m148.859375 153.203125c1.699219 1.15625 3.660156 1.730469 5.625 1.730469 1.960937 0 3.925781-.578125 5.621094-1.730469 7.003906-4.761719 41.949219-29.664063 41.949219-52.234375 0-18.640625-14.25-33.808594-31.761719-33.808594-5.589844 0-11.039063 1.582032-15.808594 4.488282-4.769531-2.90625-10.222656-4.488282-15.808594-4.488282-17.515625 0-31.761719 15.167969-31.761719 33.808594 0 22.570312 34.941407 47.472656 41.945313 52.234375zm-10.183594-66.042969c3.09375 0 6.019531 1.417969 8.246094 3.992188 1.898437 2.195312 4.660156 3.457031 7.5625 3.457031s5.664063-1.261719 7.5625-3.457031c2.226563-2.574219 5.152344-3.992188 8.246094-3.992188 6.484375 0 11.761719 6.195313 11.761719 13.8125 0 6.910156-13.398438 20.945313-27.574219 31.65625-14.171875-10.691406-27.566407-24.722656-27.566407-31.65625 0-7.617187 5.277344-13.8125 11.761719-13.8125zm0 0"/><path d="m267.648438 84.882812c12.445312 11.511719 24.726562 19.898438 25.242187 20.253907 1.699219 1.152343 3.660156 1.726562 5.625 1.726562 1.960937 0 3.925781-.574219 5.621094-1.726562.519531-.355469 12.800781-8.742188 25.246093-20.253907 18.359376-16.984374 27.285157-31.496093 27.285157-44.367187 0-22.339844-16.996094-40.515625-37.890625-40.515625-7.21875 0-14.25 2.222656-20.261719 6.28125-6.011719-4.058594-13.042969-6.28125-20.261719-6.28125-20.894531 0-37.890625 18.175781-37.890625 40.515625 0 12.871094 8.925781 27.382813 27.285157 44.367187zm10.605468-64.882812c4.792969 0 9.304688 2.160156 12.699219 6.085938 1.898437 2.195312 4.660156 3.460937 7.5625 3.460937s5.664063-1.265625 7.5625-3.460937c3.394531-3.925782 7.90625-6.085938 12.699219-6.085938 9.863281 0 17.890625 9.203125 17.890625 20.515625 0 11.1875-21.074219 31.367187-38.15625 44.070313-17.082031-12.6875-38.148438-32.851563-38.148438-44.070313 0-11.3125 8.027344-20.515625 17.890625-20.515625zm0 0"/></svg>